<?xml version="1.0" encoding="UTF-8" standalone="no"?>
<!-- Generator: Adobe Illustrator 16.0.0, SVG Export Plug-In . SVG Version: 6.00 Build 0)  -->

<svg
   version="1.1"
   id="root"
   x="0px"
   y="0px"
   width="3840"
   height="2160"
   viewBox="0 0 3840 2160"
   enable-background="new 0 0 1920 1080"
   xml:space="preserve"
   inkscape:version="1.2.2 (b0a8486541, 2022-12-01)"
   sodipodi:docname="3840x2160-pardus2.svg"
   inkscape:export-filename=""
   inkscape:export-xdpi="120"
   inkscape:export-ydpi="120"
   xmlns:inkscape="http://www.inkscape.org/namespaces/inkscape"
   xmlns:sodipodi="http://sodipodi.sourceforge.net/DTD/sodipodi-0.dtd"
   xmlns="http://www.w3.org/2000/svg"
   xmlns:svg="http://www.w3.org/2000/svg"
   xmlns:rdf="http://www.w3.org/1999/02/22-rdf-syntax-ns#"
   xmlns:cc="http://creativecommons.org/ns#"
   xmlns:dc="http://purl.org/dc/elements/1.1/"
   xmlns:ns2="http://ns.adobe.com/AdobeIllustrator/10.0/"><metadata
     id="metadata4579"><rdf:RDF><cc:Work
         rdf:about=""><dc:format>image/svg+xml</dc:format><dc:type
           rdf:resource="http://purl.org/dc/dcmitype/StillImage" /></cc:Work></rdf:RDF></metadata><defs
     id="defs4577" /><sodipodi:namedview
     pagecolor="#ffffff"
     bordercolor="#666666"
     borderopacity="1"
     objecttolerance="10"
     gridtolerance="10"
     guidetolerance="10"
     inkscape:pageopacity="0"
     inkscape:pageshadow="2"
     inkscape:window-width="1366"
     inkscape:window-height="672"
     id="namedview4575"
     showgrid="false"
     borderlayer="true"
     inkscape:zoom="0.125"
     inkscape:cx="1600"
     inkscape:cy="719.99998"
     inkscape:window-x="0"
     inkscape:window-y="0"
     inkscape:window-maximized="1"
     inkscape:current-layer="g4799"
     fit-margin-top="0"
     fit-margin-left="0"
     fit-margin-right="0"
     fit-margin-bottom="0"
     inkscape:showpageshadow="2"
     inkscape:pagecheckerboard="0"
     inkscape:deskcolor="#d1d1d1"
     showguides="true"><sodipodi:guide
       position="1915.8681,1480.689"
       orientation="1,0"
       id="guide1214"
       inkscape:locked="false" /><sodipodi:guide
       position="2743.9999,1080"
       orientation="0,-1"
       id="guide1216"
       inkscape:locked="false" /></sodipodi:namedview><g
     display="none"
     id="g4465"
     style="display:none;opacity:0.5"
     transform="translate(843.40845,617.09438)"><rect
   x="1020.368"
   y="292.37399"
   display="inline"
   width="227.175"
   height="82.924004"
   id="rect4467"
   style="display:inline;fill:none" /><text
   transform="translate(1020.3711,356.9102)"
   display="inline"
   font-size="86.6248"
   id="text4469"
   style="font-size:86.6248px;font-family:Poppl-Laudatio-Condensed;display:inline;fill:#ffffff">debian</text>
<rect
   x="1020.368"
   y="376.03601"
   display="inline"
   width="134.293"
   height="36.896"
   id="rect4471"
   style="display:inline;fill:none" /><text
   transform="translate(1020.3711,397.5488)"
   display="inline"
   font-size="28.8749"
   id="text4473"
   style="font-size:28.8749px;font-family:Poppl-Laudatio-Condensed;display:inline;fill:#ffffff">GNU/Linux</text>
</g><linearGradient
     id="SVGID_12_"
     gradientUnits="userSpaceOnUse"
     x1="209.12891"
     y1="1119.168"
     x2="1577.8721"
     y2="1119.168"
     gradientTransform="matrix(0.9907,-0.4864,0.4732,0.9638,-451.6389,-64.9346)"><stop
       offset="0"
       style="stop-color:#ABCCB3;stop-opacity:0.7"
       id="stop4478" /><stop
       offset="0.33"
       style="stop-color:#B4CFB5;stop-opacity:0.05"
       id="stop4480" /><stop
       offset="0.803"
       style="stop-color:#C1D4B7;stop-opacity:0.5"
       id="stop4482" /><stop
       offset="1"
       style="stop-color:#FEF9C8;stop-opacity:0"
       id="stop4484" /></linearGradient><g
     id="g4799"
     transform="matrix(2.00001,0,0,2.00001,0.49999584,-2.5108203)"
     style="opacity:1"><g
       id="Layer_1"><g
         id="background_1_"><linearGradient
           gradientTransform="matrix(1,0,0,-1,2258.5,2151.3984)"
           y2="1001.3118"
           x2="-1297.709"
           y1="2199.0771"
           x1="-1297.7085"
           gradientUnits="userSpaceOnUse"
           id="SVGID_1_"><stop
             id="stop4372"
             style="stop-color:#133356"
             offset="0" /><stop
             id="stop4374"
             style="stop-color:#7C9999"
             offset="0.5025" /><stop
             id="stop4376"
             style="stop-color:#333333"
             offset="1" /></linearGradient><rect
           id="rect4378"
           height="1200.004"
           width="1921.5"
           y="-50.563999"
           x="0.041000001"
           style="fill:url(#SVGID_1_)" /></g><g
         id="Layer_4"><radialGradient
           gradientUnits="userSpaceOnUse"
           gradientTransform="matrix(0.9956,0,0,-1.1148,2256.8586,2168.624)"
           r="942.22388"
           cy="1478.5107"
           cx="-1392.7373"
           id="SVGID_2_"><stop
             id="stop4382"
             style="stop-color:#E4C8A5;stop-opacity:0.5"
             offset="0" /><stop
             id="stop4384"
             style="stop-color:#AEAB93;stop-opacity:0.4372"
             offset="0.1429" /><stop
             id="stop4386"
             style="stop-color:#587E77;stop-opacity:0.3331"
             offset="0.3797" /><stop
             id="stop4388"
             style="stop-color:#366C6C;stop-opacity:0.2857"
             offset="0.4877" /></radialGradient><rect
           id="rect4390"
           height="1204.069"
           width="1923"
           y="-49.444"
           x="-1.459"
           style="fill:url(#SVGID_2_)" /></g></g><g
       id="glows"><radialGradient
         gradientUnits="userSpaceOnUse"
         gradientTransform="matrix(1,0,0,-1,2258.5,2151.3984)"
         r="279.2085"
         cy="1608.8936"
         cx="-766.47272"
         id="SVGID_3_"><stop
           id="stop4394"
           style="stop-color:#FFFCDD"
           offset="0" /><stop
           id="stop4396"
           style="stop-color:#FEF9C8;stop-opacity:0"
           offset="1" /></radialGradient><circle
         id="circle4398"
         r="279.20901"
         cy="542.505"
         cx="1492.027"
         enable-background="new    "
         style="opacity:0.2;fill:url(#SVGID_3_)" /><radialGradient
         gradientUnits="userSpaceOnUse"
         gradientTransform="matrix(1,0,0,-1,2258.5,2151.3984)"
         r="221.0005"
         cy="1704.9805"
         cx="-921.53522"
         id="SVGID_4_"><stop
           id="stop4401"
           style="stop-color:#99CCCC"
           offset="0" /><stop
           id="stop4403"
           style="stop-color:#FEF9C8;stop-opacity:0"
           offset="1" /></radialGradient><circle
         id="circle4405"
         r="221.00101"
         cy="446.418"
         cx="1336.965"
         enable-background="new    "
         style="opacity:0.2;fill:url(#SVGID_4_)" /><radialGradient
         gradientUnits="userSpaceOnUse"
         gradientTransform="matrix(1,0,0,-1,2258.5,2151.3984)"
         r="293.0015"
         cy="1742.9814"
         cx="-1875.459"
         id="SVGID_5_"><stop
           id="stop4408"
           style="stop-color:#FFFCDD"
           offset="0" /><stop
           id="stop4410"
           style="stop-color:#FEF9C8;stop-opacity:0"
           offset="1" /></radialGradient><circle
         id="circle4412"
         r="293.00201"
         cy="408.41699"
         cx="383.04099"
         enable-background="new    "
         style="opacity:0.1;fill:url(#SVGID_5_)" /><radialGradient
         gradientUnits="userSpaceOnUse"
         gradientTransform="matrix(1,0,0,-1,2258.5,2151.3984)"
         r="293.0015"
         cy="1553.9365"
         cx="-1687.459"
         id="SVGID_6_"><stop
           id="stop4415"
           style="stop-color:#FFFCDD"
           offset="0" /><stop
           id="stop4417"
           style="stop-color:#FEF9C8;stop-opacity:0"
           offset="1" /></radialGradient><circle
         id="circle4419"
         r="293.00201"
         cy="597.46198"
         cx="571.04102"
         enable-background="new    "
         style="opacity:0.1;fill:url(#SVGID_6_)" /><radialGradient
         gradientUnits="userSpaceOnUse"
         gradientTransform="matrix(1,0,0,-1,2258.5,2151.3984)"
         r="374.83151"
         cy="1461.1025"
         cx="-1591.124"
         id="SVGID_7_"><stop
           id="stop4422"
           style="stop-color:#FFFCDD"
           offset="0" /><stop
           id="stop4424"
           style="stop-color:#FEF9C8;stop-opacity:0"
           offset="1" /></radialGradient><circle
         id="circle4426"
         r="374.832"
         cy="690.29602"
         cx="667.37598"
         enable-background="new    "
         style="opacity:0.1;fill:url(#SVGID_7_)" /><radialGradient
         gradientUnits="userSpaceOnUse"
         gradientTransform="matrix(1,0,0,-1,2258.5,2151.3984)"
         r="374.83151"
         cy="1538.8691"
         cx="-979.62891"
         id="SVGID_8_"><stop
           id="stop4429"
           style="stop-color:#FFFCDD"
           offset="0" /><stop
           id="stop4431"
           style="stop-color:#FEF9C8;stop-opacity:0"
           offset="1" /></radialGradient><circle
         id="circle4433"
         r="374.832"
         cy="612.52899"
         cx="1278.871"
         enable-background="new    "
         style="opacity:0.1;fill:url(#SVGID_8_)" /><radialGradient
         gradientUnits="userSpaceOnUse"
         gradientTransform="matrix(1,0,0,-1,2258.5,2151.3984)"
         r="374.83151"
         cy="1688.8691"
         cx="-1626.2715"
         id="SVGID_9_"><stop
           id="stop4436"
           style="stop-color:#99CCCC"
           offset="0" /><stop
           id="stop4438"
           style="stop-color:#FEF9C8;stop-opacity:0"
           offset="1" /></radialGradient><circle
         id="circle4440"
         r="374.832"
         cy="462.53"
         cx="632.229"
         enable-background="new    "
         style="opacity:0.2;fill:url(#SVGID_9_)" /><radialGradient
         gradientUnits="userSpaceOnUse"
         gradientTransform="matrix(1,0,0,-1,2258.5,2151.3984)"
         r="374.83151"
         cy="1670.8691"
         cx="-691.9707"
         id="SVGID_10_"><stop
           id="stop4443"
           style="stop-color:#FFFCDD"
           offset="0" /><stop
           id="stop4445"
           style="stop-color:#FEF9C8;stop-opacity:0"
           offset="1" /></radialGradient><circle
         id="circle4447"
         r="374.832"
         cy="480.52899"
         cx="1566.5291"
         enable-background="new    "
         style="opacity:0.2;fill:url(#SVGID_10_)" /><radialGradient
         gradientUnits="userSpaceOnUse"
         gradientTransform="matrix(1,0,0,-1,2258.5,2151.3984)"
         r="374.83151"
         cy="1406.8701"
         cx="-801.80078"
         id="SVGID_11_"><stop
           id="stop4450"
           style="stop-color:#99CCCC"
           offset="0" /><stop
           id="stop4452"
           style="stop-color:#FEF9C8;stop-opacity:0"
           offset="1" /></radialGradient><circle
         id="circle4454"
         r="374.832"
         cy="744.52802"
         cx="1456.699"
         enable-background="new    "
         style="opacity:0.2;fill:url(#SVGID_11_)" /></g><g
       id="rounds"><path
         id="path4457"
         d="M 908.021,607.948"
         stroke-miterlimit="10"
         inkscape:connector-curvature="0"
         style="fill:none;stroke:#ffffff;stroke-width:2;stroke-miterlimit:10" /><circle
         id="circle4459"
         r="13.107"
         cy="470.659"
         cx="1835.511"
         enable-background="new    "
         style="opacity:0.5;fill:#ffffff" /><circle
         id="circle4461"
         r="13.109"
         cy="708.70398"
         cx="1800.964"
         enable-background="new    "
         style="opacity:0.3;fill:#ffffff" /><circle
         id="circle4463"
         r="13.108"
         cy="238.75301"
         cx="1737.661"
         enable-background="new    "
         style="opacity:0.9;fill:#ffffff" /></g><circle
       id="circle4475"
       r="13.109"
       cy="914.34302"
       cx="1673.134"
       enable-background="new    "
       style="opacity:0.1;fill:#ffffff" /><path
       id="path4486"
       d="m 1710.603,387.703 c 0,0 32.104,156.54 -101.521,293.831 C 1367.813,952.113 1069.44,788.138 841.212,590.664 821.039,573.209 770.322,528.997 679.299,441.245 559.079,325.339 489.304,357.179 350.712,460.231 141.408,628.275 98.272,501.581 94.546,489.679 l -3.627,24.725 c 3.723,11.901 46.864,138.599 256.167,-29.448 130.374,-102.068 217.179,-104.568 311.048,-17.616 93.873,86.957 98.371,89.729 185.754,169.392 299.791,273.316 518.084,333.447 771.016,110.89 133.62,-137.296 95.699,-359.919 95.699,-359.919"
       style="fill:url(#SVGID_12_)"
       inkscape:connector-curvature="0" /><g
       id="octopus_3_"><radialGradient
         gradientUnits="userSpaceOnUse"
         gradientTransform="matrix(1.4647,0.5424,-0.5668,1.7245,6457.6665,2430.6887)"
         r="805.54938"
         cy="-34.646"
         cx="-3606.8699"
         id="SVGID_13_"><stop
           id="stop4490"
           style="stop-color:#99CCCC"
           offset="0" /><stop
           id="stop4492"
           style="stop-color:#FEF9C8;stop-opacity:0"
           offset="1" /></radialGradient><path
         id="path4494"
         d="m 1581.42,198.014 c 0,0 64.824,223.599 -38.288,397.275 -174.309,293.575 -401.128,266.827 -711.52,50.015 C 284.668,263.241 134.033,547.453 127.574,582.287 l -1.853,-2.068 c 6.461,-34.84 144.659,-384.596 691.612,-2.531 310.38,216.817 537.198,243.565 711.507,-50.013 103.118,-173.68 52.58,-329.661 52.58,-329.661"
         enable-background="new    "
         style="opacity:0.2;fill:url(#SVGID_13_)"
         inkscape:connector-curvature="0" /><radialGradient
         gradientUnits="userSpaceOnUse"
         gradientTransform="matrix(1.4173,0.672,-0.6766,1.6781,6475.1831,2452.2529)"
         r="692.15527"
         cy="395.64499"
         cx="-3658.4658"
         id="SVGID_14_"><stop
           id="stop4497"
           style="stop-color:#FFFCDD"
           offset="0" /><stop
           id="stop4499"
           style="stop-color:#FEF9C8;stop-opacity:0"
           offset="1" /></radialGradient><path
         id="path4501"
         d="m 1601.01,281.413 c 0,0 49.496,229.743 -64.317,394.713 C 1344.289,954.993 1121.013,908.271 827.429,663.761 310.079,232.901 109.551,546.26 100.833,580.598 l 1.451,0.781 c 1.821,-64.225 198.103,-417.482 715.449,13.379 293.588,244.509 516.854,291.222 709.261,12.363 113.819,-164.974 74.016,-325.708 74.016,-325.708"
         enable-background="new    "
         style="opacity:0.1;fill:url(#SVGID_14_)"
         inkscape:connector-curvature="0" /><radialGradient
         gradientUnits="userSpaceOnUse"
         gradientTransform="matrix(1.4792,0.4962,-0.5276,1.7383,6453.3857,2423.6484)"
         r="259.32779"
         cy="-96.178703"
         cx="-3648.606"
         id="SVGID_15_"><stop
           id="stop4504"
           style="stop-color:#065E7F"
           offset="0" /><stop
           id="stop4506"
           style="stop-color:#FEF9C8;stop-opacity:0"
           offset="1" /></radialGradient><path
         id="path4508"
         d="m 1553.541,133.244 c 0,0 70.093,221.152 -29.146,397.626 -167.743,298.326 -395.49,278.588 -711.32,71.755 -13.854,-9.076 -619.949,-531.397 -721.01,92.941 l 12.64,-136.228 c 5.663,-34.963 135.946,-388.227 692.495,-23.75 315.831,206.837 543.58,226.565 711.327,-71.75 99.229,-176.484 45.014,-330.594 45.014,-330.594"
         enable-background="new    "
         style="opacity:0.5;fill:url(#SVGID_15_)"
         inkscape:connector-curvature="0" /></g><g
       id="bubble"
       transform="translate(-42.213411,110.26531)"><radialGradient
         gradientUnits="userSpaceOnUse"
         gradientTransform="matrix(2.398,0,0,-2.4744,4647.9561,3324.3628)"
         r="70.523697"
         cy="939.73541"
         cx="-1897.6162"
         id="SVGID_16_"><stop
           id="stop4512"
           style="stop-color:#AEAB93;stop-opacity:0.4372"
           offset="0.0592" /><stop
           id="stop4514"
           style="stop-color:#587E77;stop-opacity:0.3331"
           offset="0.5718" /><stop
           id="stop4516"
           style="stop-color:#366C6C;stop-opacity:0"
           offset="1" /></radialGradient><ellipse
         id="ellipse4518"
         ry="174.502"
         rx="169.118"
         cy="999.08002"
         cx="97.473"
         style="fill:url(#SVGID_16_)" /><radialGradient
         gradientUnits="userSpaceOnUse"
         gradientTransform="matrix(2.398,0,0,-2.4744,4647.9561,3324.3628)"
         r="103.0393"
         cy="925.29883"
         cx="-1942.6294"
         id="SVGID_17_"><stop
           id="stop4521"
           style="stop-color:#587E77;stop-opacity:0.3331"
           offset="3.896629e-004" /><stop
           id="stop4523"
           style="stop-color:#AEAB93;stop-opacity:0.3"
           offset="0.5616" /><stop
           id="stop4525"
           style="stop-color:#366C6C;stop-opacity:0"
           offset="1" /></radialGradient><path
         id="path4527"
         d="m -10.47,779.844 c 136.465,0 247.092,114.148 247.092,254.955 0,140.813 -110.626,254.963 -247.092,254.963 -136.465,0 -247.091,-114.149 -247.091,-254.963 0,-140.808 110.626,-254.955 247.091,-254.955 z"
         style="fill:url(#SVGID_17_)"
         inkscape:connector-curvature="0" /><radialGradient
         gradientUnits="userSpaceOnUse"
         gradientTransform="matrix(3.1212,0,0,-3.2305,5610.6348,3728.9705)"
         r="103.0373"
         cy="884.44141"
         cx="-1721.7773"
         id="SVGID_18_"><stop
           id="stop4530"
           style="stop-color:#587E77;stop-opacity:0.3331"
           offset="3.896629e-004" /><stop
           id="stop4532"
           style="stop-color:#AEAB93;stop-opacity:0.1"
           offset="0.5468" /><stop
           id="stop4534"
           style="stop-color:#366C6C;stop-opacity:0"
           offset="0.67" /></radialGradient><path
         id="path4536"
         d="m 236.623,538.923 c 177.613,0 321.599,149.024 321.599,332.857 0,183.842 -143.986,332.865 -321.599,332.865 -177.615,0 -321.601,-149.023 -321.601,-332.865 0,-183.832 143.986,-332.857 321.601,-332.857 z"
         style="fill:url(#SVGID_18_)"
         inkscape:connector-curvature="0" /><circle
         id="circle4538"
         r="13.109"
         cy="708.70398"
         cx="1800.964"
         enable-background="new    "
         style="opacity:0.3;fill:#ffffff" /><linearGradient
         gradientTransform="matrix(2.398,0,0,-2.4744,4647.9561,3324.3628)"
         y2="1133.6904"
         x2="-1505.2378"
         y1="1133.6904"
         x1="-1617.2939"
         gradientUnits="userSpaceOnUse"
         id="SVGID_19_"><stop
           id="stop4541"
           style="stop-color:#99CCCC;stop-opacity:0"
           offset="0.5468" /><stop
           id="stop4543"
           style="stop-color:#C8E1CA;stop-opacity:0.8"
           offset="0.7931" /><stop
           id="stop4545"
           style="stop-color:#FEF9C8;stop-opacity:0"
           offset="1" /></linearGradient><ellipse
         id="ellipse4547"
         ry="138.636"
         rx="134.355"
         cy="519.15802"
         cx="904.03998"
         enable-background="new    "
         style="opacity:0.1;fill:url(#SVGID_19_)" /></g><g
       style="overflow:visible;opacity:0.04747429"
       id="g1212"
       transform="matrix(6.5425926,0,0,5.0887972,546.64012,228.20468)"><g
         id="g5080"
         transform="matrix(0.64991451,0,0,0.64991451,-129.67298,-109.34278)"><g
           id="g5082"><polygon
             id="polygon5084"
             points="218.433,178.322 202.927,198.549 225.85,234.284 248.776,190.457 "
             ns2:knockout="Off"
             style="fill:#fff7d6" /><polygon
             id="polygon5086"
             points="377.565,178.322 393.074,198.549 370.148,234.284 347.224,190.457 "
             ns2:knockout="Off"
             style="fill:#fff7d6" /></g><path
           id="path5088"
           d="m 368.017,244.885 -23.586,-44.892 c -0.878,-1.659 -3.599,-3.787 -5.402,-4.216 l -0.438,-0.108 -35.484,-8.445 c -2.448,-0.585 -6.917,-0.595 -9.37,-0.019 l -36.329,8.495 -0.452,0.106 c -1.797,0.419 -4.509,2.531 -5.381,4.186 l -23.587,44.892 -3.266,6.206 c -1.033,1.968 -1.667,5.922 -1.299,8.123 l 6.554,39.393 c 0.222,1.341 1.824,3.1 3.118,3.427 l 17.847,4.505 c -0.439,-1.754 3.608,-3.582 3.602,-5.313 l 9.087,-19.809 c 0.006,0.343 -0.024,0.697 -0.092,1.048 l -3.407,17.627 c -0.37,1.926 0.375,5.379 1.5,6.975 l 1.886,2.656 8.866,12.51 13.018,18.384 c 0.999,1.405 3.752,2.841 5.459,2.841 h 14.282 c 1.706,0 4.458,-1.436 5.452,-2.841 l 12.898,-18.204 8.898,-12.556 1.974,-2.79 c 1.128,-1.596 1.871,-5.049 1.5,-6.975 l -3.405,-17.627 c -0.062,-0.351 -0.095,-0.705 -0.09,-1.042 l 9.086,19.807 c -0.003,1.752 4.036,3.605 3.587,5.392 l 17.854,-4.572 c 1.296,-0.331 2.902,-2.098 3.123,-3.443 l 6.557,-39.393 c 0.371,-2.201 -0.262,-6.155 -1.298,-8.123 z"
           ns2:knockout="Off"
           style="fill:#fff5c8"
           inkscape:connector-curvature="0" /><path
           id="path5090"
           d="m 396.358,195.215 c -0.938,-2.797 -3.888,-7.817 -6.536,-11.158 -2.654,-3.345 -6.974,-7.304 -9.598,-8.798 -2.626,-1.5 -14.631,1.781 -20.703,4.558 l -4.432,2.023 c -6.072,2.779 -11.125,5.093 -11.227,5.141 -0.099,0.052 -0.813,0 -1.367,-0.229 -0.556,-0.239 -7.312,-1.902 -13.817,-3.423 l -11.646,-2.721 c -6.507,-1.521 -14.006,-2.97 -16.67,-3.221 -2.666,-0.253 -14.035,1.651 -20.54,3.144 l -12.467,2.865 c -6.509,1.492 -12.287,2.85 -12.833,3.016 -0.552,0.162 -2.088,0.722 -2.192,0.666 -0.103,-0.059 -5.351,-2.46 -11.421,-5.239 l -4.427,-2.023 c -6.077,-2.777 -13.571,-5.233 -16.659,-5.46 -3.088,-0.227 -10.992,6.355 -13.643,9.7 -2.658,3.34 -5.6,8.365 -6.543,11.161 -0.943,2.797 4.172,13.816 7.91,19.351 l 7.64,11.332 c 3.732,5.535 5.79,11.934 4.564,14.215 -1.223,2.29 -2.895,6.357 -3.719,9.042 -0.825,2.69 0.128,14.482 1.241,21.067 l 2.387,14.055 c 1.115,6.584 3.21,14.174 4.654,16.867 1.448,2.695 12.901,7.452 19.386,9.058 l 2.901,0.719 c 6.478,1.607 14.979,7.355 18.884,12.771 l 5.237,7.246 c 3.903,5.418 8.998,11.364 11.32,13.216 2.313,1.851 12.101,3.366 15.958,3.366 3.864,0 9.354,-0.652 12.213,-1.448 2.856,-0.795 11.16,-9.715 15.063,-15.134 l 5.151,-7.133 c 3.907,-5.411 12.399,-11.174 18.879,-12.801 l 3.02,-0.759 c 6.476,-1.627 13.882,-4.306 16.453,-5.953 2.573,-1.649 6.447,-13.432 7.565,-20.016 l 2.382,-14.052 c 1.112,-6.588 1.964,-14.271 1.892,-17.086 -0.071,-2.808 -3.145,-10.736 -4.37,-13.026 -1.222,-2.282 0.834,-8.68 4.565,-14.215 l 7.64,-11.332 c 3.734,-5.533 8.849,-16.552 7.905,-19.352 z m -181.589,12.866 c -3.323,-4.922 -6.179,-9.319 -6.353,-9.762 0,0 0,0 0,-0.51 0,-0.639 0,-0.639 0,-0.639 0.255,-0.583 2.639,-3.791 5.291,-7.134 2.658,-3.34 5.254,-6.277 5.773,-6.53 0.517,-0.25 6.929,2.284 13.002,5.055 l 0.949,0.436 c 6.073,2.776 10.953,5.188 10.846,5.361 -0.109,0.173 -2.948,5.445 -6.098,11.336 l -5.341,9.979 c -3.15,5.89 -14.747,-2.665 -18.069,-7.592 z m 156.37,45.603 c 0.073,1.628 -0.783,8.35 -1.896,14.937 l -2.387,14.056 c -1.113,6.581 -2.428,12.647 -2.928,13.472 -0.488,0.824 -6.113,2.809 -10.937,4.022 -4.83,1.213 -8.618,1.412 -8.433,0.45 0.185,-0.969 -2.613,-7.749 -6.221,-13.004 -3.614,-5.251 -6.566,-9.398 -6.561,-9.215 0.005,0.182 0.828,4.496 1.752,9.17 0.921,4.68 1.592,9.675 1.493,11.102 -0.102,1.428 -1.731,4.734 -2.262,5.476 -0.536,0.741 -2.938,4.071 -5.345,7.399 -2.408,3.33 -7.219,10.008 -10.706,14.836 -3.482,4.826 -7.161,9.399 -8.177,10.151 -1.015,0.751 -6.67,1.371 -10.534,1.371 -3.856,0 -8.001,-0.313 -9.207,-0.696 -1.2,-0.381 -6.05,-6.036 -9.567,-10.911 -3.519,-4.876 -8.358,-11.581 -10.75,-14.9 -2.397,-3.319 -4.767,-6.608 -5.282,-7.314 -0.504,-0.705 -1.336,-2.379 -1.842,-3.716 -0.503,-1.34 0.203,-8.118 1.121,-12.798 0.922,-4.674 1.695,-8.65 1.721,-8.839 0.027,-0.187 -2.911,3.632 -6.524,8.885 -3.614,5.256 -6.513,10.325 -6.448,11.268 0.062,0.944 -3.401,2.434 -8.221,1.237 -4.819,-1.195 -9.405,-2.629 -10.187,-3.18 -0.781,-0.551 -2.555,-7.684 -3.673,-14.265 l -2.381,-14.056 c -1.116,-6.587 -1.969,-13.309 -1.897,-14.937 0.073,-1.635 1.867,-6.222 2.751,-7.865 0.878,-1.646 4.181,-7.813 7.332,-13.701 l 11.715,-21.889 c 3.149,-5.885 6.519,-11.518 7.488,-12.521 0.97,-1 3.629,-2.245 3.751,-2.273 0.126,-0.028 5.547,-1.275 12.057,-2.766 l 12.024,-2.763 c 6.504,-1.495 13.361,-2.839 15.231,-2.989 1.871,-0.149 11.127,1.537 17.633,3.056 l 11.214,2.619 c 6.504,1.521 11.923,2.789 12.04,2.819 0.119,0.025 1.217,0.603 2.438,1.28 1.223,0.678 5.658,7.651 8.809,13.537 l 11.716,21.889 c 3.148,5.887 6.453,12.054 7.332,13.701 0.882,1.643 2.68,6.23 2.748,7.865 z m 16.446,-55.365 c -0.174,0.443 -3.037,4.84 -6.355,9.762 -3.318,4.927 -14.915,13.482 -18.063,7.592 l -5.345,-9.979 c -3.155,-5.891 -5.811,-10.85 -5.908,-11.023 -0.103,-0.172 4.585,-2.898 10.658,-5.674 l 0.945,-0.436 c 6.07,-2.771 11.605,-5.055 12.296,-5.076 0.691,-0.015 3.824,3.211 6.479,6.551 2.648,3.343 5.036,6.551 5.293,7.134 0,0 0,0 0,0.639 0,0.51 0,0.51 0,0.51 z"
           ns2:knockout="Off"
           inkscape:connector-curvature="0" /><path
           id="path5092"
           d="m 281.029,287.938 c -1.433,-2.87 0.016,-5.225 3.231,-5.225 h 27.478 c 3.21,0 4.663,2.355 3.232,5.225 l -14.36,16.325 c -1.437,2.872 -3.78,2.872 -5.221,0 z"
           ns2:knockout="Off"
           inkscape:connector-curvature="0" /><path
           id="path5094"
           d="m 297.999,322.948 c 0.004,0 1.94,1.775 4.313,3.943 l 9.331,8.528 c 2.377,2.163 4.97,2.38 5.764,0.473 0.795,-1.906 -0.721,-4.942 -3.376,-6.753 l -8.838,-6.028 c -2.654,-1.811 -4.819,-3.351 -4.809,-3.423 0.008,-0.068 0.02,-2.896 0.02,-6.109 v -16.461 c 0,-3.213 -0.484,-6.925 -1.077,-8.247 0,0 0,0 -1.328,0 -1.326,0 -1.326,0 -1.326,0 -0.593,1.322 -1.077,5.033 -1.077,8.247 v 16.461 c 0,3.213 0.006,5.903 0.009,5.979 0.007,0.07 -2.142,1.742 -4.798,3.553 l -8.838,6.028 c -2.653,1.811 -4.176,4.847 -3.377,6.753 0.8,1.908 3.387,1.69 5.763,-0.473 l 9.333,-8.528 c 2.373,-2.168 4.311,-3.943 4.311,-3.943 z"
           ns2:knockout="Off"
           inkscape:connector-curvature="0" /><g
           id="g5096"><path
             id="path5098"
             d="m 246.885,244.751 c -3.453,0.1 -3.48,0.578 -0.063,1.067 l 28.657,4.092 c 3.413,0.489 5.948,3.696 5.627,7.127 l -3.658,12.79 c -0.309,3.431 0.762,6.337 2.396,6.457 1.634,0.12 2.98,0.104 2.99,-0.036 0.005,-0.137 0.14,-3.068 0.284,-6.513 l 2.993,-12.004 c 0.15,-3.446 0.345,-8.027 0.438,-10.181 0.099,-2.154 -0.813,-3.892 -2.019,-3.856 -1.206,0.035 -5.015,0.139 -8.463,0.237 z"
             ns2:knockout="Off"
             inkscape:connector-curvature="0" /><path
             id="path5100"
             d="m 319.935,243.932 c -3.449,-0.098 -7.259,-0.202 -8.458,-0.237 -1.212,-0.036 -2.124,1.702 -2.032,3.856 0.093,2.154 0.294,6.735 0.442,10.181 l 2.99,12.004 c 0.15,3.444 0.279,6.375 0.295,6.513 0.006,0.14 1.35,0.155 2.983,0.036 1.635,-0.119 2.71,-3.025 2.39,-6.457 l -3.652,-12.79 c -0.317,-3.431 2.216,-6.638 5.627,-7.127 l 28.657,-4.092 c 3.411,-0.489 3.391,-0.967 -0.062,-1.067 z"
             ns2:knockout="Off"
             inkscape:connector-curvature="0" /></g><g
           id="g5102"><circle
             id="circle5104"
             r="3.974"
             cy="249.082"
             cx="268.66599"
             ns2:knockout="Off" /><path
             id="path5106"
             d="m 331.314,249.082 c 0,2.199 -1.786,3.978 -3.979,3.978 -2.202,0 -3.98,-1.779 -3.98,-3.978 0,-2.195 1.778,-3.974 3.98,-3.974 2.193,-0.001 3.979,1.779 3.979,3.974 z"
             ns2:knockout="Off"
             inkscape:connector-curvature="0" /></g><g
           id="g5108"><g
             id="g5111"><g
               id="g5113"
               ns2:knockout="Off"><g
                 id="g5115"><path
                   id="path5117"
                   d="m 282.442,299.431 c -22.72,6.003 -41.634,16.871 -60.114,31.306"
                   ns2:knockout="Off"
                   style="fill:none"
                   inkscape:connector-curvature="0" /><path
                   id="path5119"
                   d="m 282.2,298.054 c -21.88,5.292 -43.854,16.737 -60.637,31.78 -1.164,1.042 0.289,2.639 1.532,1.807 9.16,-6.125 17.966,-12.6 27.651,-17.915 10.139,-5.564 20.881,-9.605 31.939,-12.917 1.686,-0.505 1.297,-3.186 -0.485,-2.755 z"
                   ns2:knockout="Off"
                   inkscape:connector-curvature="0" /></g></g><g
               id="g5121"
               ns2:knockout="Off"><g
                 id="g5123"><path
                   id="path5125"
                   d="m 282.968,306.988 c -16.705,1.636 -33.563,20.751 -43.912,33.257"
                   ns2:knockout="Off"
                   style="fill:none"
                   inkscape:connector-curvature="0" /><path
                   id="path5127"
                   d="m 282.77,305.868 c -9.444,0.723 -17.431,6.122 -24.537,12.016 -7.479,6.204 -14.603,13.695 -20.01,21.778 -0.624,0.933 0.641,2.192 1.491,1.359 12.808,-12.552 24.483,-29.631 43.451,-32.913 1.472,-0.254 1.04,-2.351 -0.395,-2.24 z"
                   ns2:knockout="Off"
                   inkscape:connector-curvature="0" /></g></g><g
               id="g5129"
               ns2:knockout="Off"><g
                 id="g5131"><path
                   id="path5133"
                   d="m 284.562,314.588 c -16.175,4.496 -29.483,26.229 -37.521,40.328"
                   ns2:knockout="Off"
                   style="fill:none"
                   inkscape:connector-curvature="0" /><path
                   id="path5135"
                   d="m 284.364,313.467 c -8.867,2.251 -15.541,8.416 -21.442,15.134 -6.738,7.671 -12.65,16.651 -16.835,25.961 -0.484,1.078 1.134,1.858 1.787,0.937 10.368,-14.624 19.083,-33.416 37.176,-39.883 1.208,-0.432 0.551,-2.463 -0.686,-2.149 z"
                   ns2:knockout="Off"
                   inkscape:connector-curvature="0" /></g></g></g><g
             id="g5137"><g
               id="g5139"
               ns2:knockout="Off"><g
                 id="g5141"><path
                   id="path5143"
                   d="m 313.56,299.431 c 22.718,6.003 41.628,16.871 60.104,31.306"
                   ns2:knockout="Off"
                   style="fill:none"
                   inkscape:connector-curvature="0" /><path
                   id="path5145"
                   d="m 313.074,300.743 c 11.08,3.32 21.741,7.38 31.951,12.85 9.841,5.271 18.705,11.93 27.959,18.114 1.305,0.872 2.469,-0.947 1.359,-1.94 -16.666,-14.924 -38.57,-26.389 -60.299,-31.647 -1.712,-0.415 -2.727,2.097 -0.97,2.623 z"
                   ns2:knockout="Off"
                   inkscape:connector-curvature="0" /></g></g><g
               id="g5147"
               ns2:knockout="Off"><g
                 id="g5149"><path
                   id="path5151"
                   d="m 313.03,306.988 c 16.707,1.636 33.564,20.751 43.913,33.257"
                   ns2:knockout="Off"
                   style="fill:none"
                   inkscape:connector-curvature="0" /><path
                   id="path5153"
                   d="m 312.923,308.121 c 18.863,3.261 30.51,20.297 43.245,32.782 0.946,0.928 2.279,-0.229 1.551,-1.316 -5.477,-8.176 -12.608,-15.396 -20.064,-21.789 -6.961,-5.969 -15.178,-11.229 -24.517,-11.942 -1.482,-0.114 -1.644,2.018 -0.215,2.265 z"
                   ns2:knockout="Off"
                   inkscape:connector-curvature="0" /></g></g><g
               id="g5155"
               ns2:knockout="Off"><g
                 id="g5157"><path
                   id="path5159"
                   d="m 311.435,314.588 c 16.172,4.496 29.49,26.229 37.524,40.328"
                   ns2:knockout="Off"
                   style="fill:none"
                   inkscape:connector-curvature="0" /><path
                   id="path5161"
                   d="m 311.04,315.655 c 18.046,6.457 26.813,25.33 37.144,39.919 0.686,0.968 2.152,-0.075 1.694,-1.095 -4.017,-8.945 -9.716,-17.315 -15.94,-24.875 -5.824,-7.073 -13.024,-13.776 -22.108,-16.083 -1.392,-0.354 -2.199,1.63 -0.79,2.134 z"
                   ns2:knockout="Off"
                   inkscape:connector-curvature="0" /></g></g></g></g><g
           id="g5163"><g
             id="g5165"><ellipse
               id="ellipse5167"
               ry="8.0299997"
               rx="6.4250002"
               cy="205.96201"
               cx="260.37"
               ns2:knockout="Off" /><path
               id="path5169"
               d="m 258.13,221.388 c 0,2.959 -2.396,5.353 -5.349,5.353 -2.959,0 -5.355,-2.394 -5.355,-5.353 0,-2.956 2.396,-5.353 5.355,-5.353 2.953,0.001 5.349,2.397 5.349,5.353 z"
               ns2:knockout="Off"
               inkscape:connector-curvature="0" /><path
               id="path5171"
               d="m 282.519,203.942 c -1.077,3.381 -3.318,5.69 -5.011,5.152 -1.688,-0.539 -2.19,-3.713 -1.111,-7.096 1.072,-3.382 3.314,-5.688 5.003,-5.148 1.691,0.537 2.191,3.716 1.119,7.092 z"
               ns2:knockout="Off"
               inkscape:connector-curvature="0" /><path
               id="path5173"
               d="m 274.432,223.038 c 0,1.778 -1.674,3.214 -3.748,3.214 -2.069,0 -3.746,-1.436 -3.746,-3.214 0,-1.774 1.676,-3.211 3.746,-3.211 2.074,0 3.748,1.437 3.748,3.211 z"
               ns2:knockout="Off"
               inkscape:connector-curvature="0" /></g><g
             id="g5175"><path
               id="path5177"
               d="m 353.42,284.343 c -1.319,2.646 -0.248,5.858 2.4,7.178 2.646,1.321 5.86,0.247 7.179,-2.398 1.32,-2.649 0.242,-5.866 -2.401,-7.179 -2.643,-1.325 -5.859,-0.248 -7.178,2.399 z"
               ns2:knockout="Off"
               inkscape:connector-curvature="0" /><path
               id="path5179"
               d="m 354.672,270.667 c -0.546,3.506 0.429,6.572 2.179,6.845 1.759,0.272 3.618,-2.346 4.172,-5.85 0.546,-3.506 -0.429,-6.571 -2.188,-6.842 -1.748,-0.276 -3.616,2.342 -4.163,5.847 z"
               ns2:knockout="Off"
               inkscape:connector-curvature="0" /><path
               id="path5181"
               d="m 344.822,278.809 c -0.794,1.588 0.067,3.625 1.917,4.547 1.854,0.925 4,0.387 4.787,-1.2 0.796,-1.588 -0.066,-3.624 -1.916,-4.546 -1.851,-0.926 -3.999,-0.387 -4.788,1.199 z"
               ns2:knockout="Off"
               inkscape:connector-curvature="0" /></g></g></g></g></g><rect
     style="fill:none;fill-rule:evenodd;stroke:none;stroke-width:3px;stroke-linecap:butt;stroke-linejoin:miter;stroke-opacity:1"
     id="rect4910"
     width="3840.019"
     height="2160.0107"
     x="2.5"
     y="-2.5108032" /></svg>
