<?xml version="1.0" encoding="UTF-8" standalone="no"?>
<!-- Created with Inkscape (http://www.inkscape.org/) -->

<svg
   width="3840"
   height="2160"
   viewBox="33.87 0 1016 571.5"
   version="1.1"
   id="svg8"
   inkscape:version="1.2.2 (b0a8486541, 2022-12-01)"
   sodipodi:docname="3840x2160-duvar1.svg"
   inkscape:export-filename="C:\Users\xine\Documents\2018-debian-buster\futurePrototype\futurePrototype-wallpaper-02-4096x2160.png"
   inkscape:export-xdpi="96"
   inkscape:export-ydpi="96"
   xmlns:inkscape="http://www.inkscape.org/namespaces/inkscape"
   xmlns:sodipodi="http://sodipodi.sourceforge.net/DTD/sodipodi-0.dtd"
   xmlns="http://www.w3.org/2000/svg"
   xmlns:svg="http://www.w3.org/2000/svg"
   xmlns:rdf="http://www.w3.org/1999/02/22-rdf-syntax-ns#"
   xmlns:cc="http://creativecommons.org/ns#"
   xmlns:dc="http://purl.org/dc/elements/1.1/">
  <defs
     id="defs2" />
  <sodipodi:namedview
     id="base"
     pagecolor="#ffffff"
     bordercolor="#b20eb2"
     borderopacity="1"
     inkscape:pageopacity="0.0"
     inkscape:pageshadow="2"
     inkscape:zoom="0.15185547"
     inkscape:cx="2001.9035"
     inkscape:cy="905.46623"
     inkscape:document-units="px"
     inkscape:current-layer="layer1"
     showgrid="false"
     units="px"
     borderlayer="true"
     inkscape:showpageshadow="false"
     showborder="true"
     inkscape:window-width="1366"
     inkscape:window-height="681"
     inkscape:window-x="0"
     inkscape:window-y="0"
     inkscape:window-maximized="1"
     inkscape:snap-bbox="true"
     inkscape:bbox-paths="true"
     inkscape:bbox-nodes="true"
     inkscape:snap-bbox-edge-midpoints="true"
     inkscape:snap-bbox-midpoints="true"
     inkscape:snap-page="true"
     inkscape:snap-nodes="true"
     inkscape:snap-global="false"
     inkscape:object-paths="true"
     inkscape:snap-intersection-paths="true"
     inkscape:snap-smooth-nodes="true"
     inkscape:snap-others="true"
     fit-margin-left="0"
     viewbox-x="33.87"
     fit-margin-top="0"
     fit-margin-right="0"
     fit-margin-bottom="0"
     inkscape:pagecheckerboard="0"
     inkscape:deskcolor="#d1d1d1" />
  <metadata
     id="metadata5">
    <rdf:RDF>
      <cc:Work
         rdf:about="">
        <dc:format>image/svg+xml</dc:format>
        <dc:type
           rdf:resource="http://purl.org/dc/dcmitype/StillImage" />
      </cc:Work>
    </rdf:RDF>
  </metadata>
  <g
     inkscape:groupmode="layer"
     id="layer2"
     inkscape:label="back"
     style="display:inline">
    <rect
       inkscape:export-ydpi="96"
       inkscape:export-xdpi="96"
       y="0"
       x="33.104393"
       height="571.5"
       width="1017.5245"
       id="rect1009"
       style="display:inline;opacity:1;fill:#181818;fill-opacity:1;fill-rule:nonzero;stroke:none;stroke-width:6.76436;stroke-linecap:butt;stroke-linejoin:round;stroke-miterlimit:4;stroke-dasharray:none;stroke-dashoffset:0;stroke-opacity:1;paint-order:normal;enable-background:new"
       inkscape:export-filename="C:\Users\xine\Documents\2018-debian-buster\futurePrototype-source\desktop-wallpaper\png\wallpaper-4096x2160.png" />
  </g>
  <g
     inkscape:label="buster"
     inkscape:groupmode="layer"
     id="layer1"
     transform="translate(0,274.50001)"
     style="display:inline">
    <g
       id="g197"
       inkscape:highlight-color="#c3e33e"
       style="opacity:0.354128"
       transform="matrix(0.93890675,0,0,0.99999999,30.25865,-6.4529406)">
      <path
         inkscape:connector-curvature="0"
         id="rect6945"
         d="m 1087.5491,-212.79766 c -47.9948,13.18855 -94.44638,32.46657 -137.89282,57.50295 -74.09468,42.69763 -139.8951,102.441288 -185.77007,176.645016 -45.87496,74.203744 -71.10214,163.171954 -65.49675,251.271484 0.62886,9.88375 1.64078,19.75527 2.84374,29.61732 h 386.3159 z"
         style="display:inline;opacity:0.05;fill:#ffffff;fill-opacity:1;fill-rule:nonzero;stroke:none;stroke-width:6.98095;stroke-linecap:butt;stroke-linejoin:round;stroke-miterlimit:4;stroke-dasharray:none;stroke-dashoffset:0;stroke-opacity:1;paint-order:normal;enable-background:new" />
      <path
         inkscape:connector-curvature="0"
         id="rect1009-3"
         d="M 1078.7171,-0.57341276 C 1052.3841,-0.59590234 1026.6866,2.8041787 1001.9182,9.5794698 949.33862,23.962087 900.94585,53.555627 859.54393,97.905852 812.33751,148.47397 774.49167,218.54955 748.50268,302.23911 H 1087.5491 V -0.43283964 c -2.9514,-0.0876829 -5.896,-0.13805958 -8.832,-0.14057312 z"
         style="display:inline;opacity:0.05;fill:#ffffff;fill-opacity:1;fill-rule:nonzero;stroke:none;stroke-width:6.98095;stroke-linecap:butt;stroke-linejoin:round;stroke-miterlimit:4;stroke-dasharray:none;stroke-dashoffset:0;stroke-opacity:1;paint-order:normal;enable-background:new" />
      <path
         sodipodi:nodetypes="csssccssccccc"
         inkscape:connector-curvature="0"
         id="rect6824"
         d="m 435.03861,-269.26088 c -24.03914,36.29553 -41.83277,76.72423 -51.88884,119.08782 -7.92895,33.40267 -11.26292,68.023976 -22.98515,100.291551 -5.8611,16.133786 -13.86009,31.633996 -24.92716,44.7554082 C 324.17039,7.9953036 309.90951,18.675316 293.62398,24.100544 278.17554,29.246875 261.34955,29.52855 245.36749,26.412023 229.38543,23.295523 214.18622,16.883002 199.95993,8.9614032 171.50735,-6.8817567 146.79599,-28.683968 118.91474,-45.512267 84.059312,-66.549978 44.345616,-79.360087 3.8158289,-83.097051 V 302.23911 H 1087.5491 v -571.49999 z"
         style="display:inline;opacity:0.05;fill:#ffffff;fill-opacity:1;fill-rule:nonzero;stroke:none;stroke-width:6.98095;stroke-linecap:butt;stroke-linejoin:round;stroke-miterlimit:4;stroke-dasharray:none;stroke-dashoffset:0;stroke-opacity:1;paint-order:normal;enable-background:new" />
      <path
         inkscape:connector-curvature="0"
         id="rect6875"
         d="m 792.31601,-244.29186 c -82.10955,-0.20833 -164.25246,21.5677 -236.14009,62.99357 -59.4436,34.25484 -112.233,82.185298 -149.03691,141.71641 -36.80391,59.531111 -57.04263,130.907439 -52.54564,201.58667 2.91317,45.78599 15.93292,91.24103 11.01534,136.84022 -0.12215,1.13274 -0.25836,2.26433 -0.40306,3.3941 h 722.34345 v -440.44597 c -0.3064,-0.24807 -0.6107,-0.49893 -0.9177,-0.74621 -74.2929,-59.83301 -165.56912,-96.42546 -259.15785,-103.8965 -11.69855,-0.93388 -23.42764,-1.41253 -35.15754,-1.44229 z"
         style="display:inline;opacity:0.05;fill:#ffffff;fill-opacity:1;fill-rule:nonzero;stroke:none;stroke-width:6.98095;stroke-linecap:butt;stroke-linejoin:round;stroke-miterlimit:4;stroke-dasharray:none;stroke-dashoffset:0;stroke-opacity:1;paint-order:normal;enable-background:new" />
      <path
         inkscape:connector-curvature="0"
         id="rect6840"
         d="M 832.43811,58.907195 C 777.92688,58.885764 723.42917,67.512821 671.76989,84.95471 561.15244,122.30282 464.17143,200.80641 407.10025,302.23911 H 1087.5491 V 127.58207 c -12.4243,-7.32104 -25.17,-14.10054 -38.2033,-20.29642 C 981.86441,75.205819 907.13867,58.936379 832.43811,58.907195 Z"
         style="display:inline;opacity:0.05;fill:#ffffff;fill-opacity:1;fill-rule:nonzero;stroke:none;stroke-width:6.98095;stroke-linecap:butt;stroke-linejoin:round;stroke-miterlimit:4;stroke-dasharray:none;stroke-dashoffset:0;stroke-opacity:1;paint-order:normal;enable-background:new" />
      <path
         sodipodi:nodetypes="cccccccsscc"
         inkscape:connector-curvature="0"
         id="rect6831"
         d="m 205.38647,-269.26088 c -59.50544,41.03786 -96.04816,143.75354 -49.31765,204.46671 28.96227,34.740607 124.88358,22.289386 116.56482,81.279915 -5.83416,47.811626 23.42057,110.378935 61.44848,143.126945 72.49429,66.64872 141.31456,64.35723 233.94718,55.68375 106.98566,-10.57677 217.94537,-30.28748 322.72016,4.85305 58.44363,17.39381 113.68704,45.39844 162.38004,82.08962 8.9188,-20.07147 -95.22427,-128.1934 -132.86607,-177.66382 -25.79515,-33.901044 -156.81148,-185.463174 -296.19092,-316.62217 -23.88689,-22.47807 -69.39444,-77.214 -92.86571,-77.214 z"
         style="display:inline;opacity:0.05;fill:#ffffff;fill-opacity:1;fill-rule:nonzero;stroke:none;stroke-width:6.98096;stroke-linecap:butt;stroke-linejoin:round;stroke-miterlimit:4;stroke-dasharray:none;stroke-dashoffset:0;stroke-opacity:1;paint-order:normal;enable-background:new" />
      <path
         sodipodi:nodetypes="ccccccssc"
         inkscape:connector-curvature="0"
         id="rect6834"
         d="M 3.8158289,-251.90845 V 302.23911 H 919.35064 C 933.24018,207.65335 890.78281,98.526144 798.3805,60.219717 696.60979,18.582609 582.46137,62.489313 480.15835,22.518894 425.47818,6.4950924 366.29071,-27.884897 355.12405,-88.63977 c -4.05099,-35.68639 -42.72504,-63.85617 -74.36559,-58.78748 -52.85192,8.46667 -49.22915,48.669143 -141.82849,51.140103 C 73.602918,-94.543933 22.106835,-190.10633 3.8158289,-251.90845 Z"
         style="display:inline;opacity:0.05;fill:#ffffff;fill-opacity:1;fill-rule:nonzero;stroke:none;stroke-width:6.98096;stroke-linecap:butt;stroke-linejoin:round;stroke-miterlimit:4;stroke-dasharray:none;stroke-dashoffset:0;stroke-opacity:1;paint-order:normal;enable-background:new" />
      <path
         sodipodi:nodetypes="cccccsssssc"
         inkscape:connector-curvature="0"
         id="rect6828"
         d="m 92.031115,90.653338 c -2.702105,-0.0026 -5.407353,0.04133 -8.1163,0.13642 -27.572231,0.967898 -54.896642,7.430426 -80.0989861,18.646402 v 192.71797 c 218.5576111,0.19124 437.3060311,-2e-5 655.8638411,-2e-5 2.66756,-10.68399 4.27509,-21.63138 4.73975,-32.63472 1.29953,-30.77316 -6.29613,-61.8709 -21.63641,-88.57959 C 627.44276,154.23112 604.40874,131.99985 577.17307,117.61602 529.09322,92.223879 471.7119,92.248458 417.7115,98.60375 363.71107,104.95904 309.83889,117.04206 255.57514,113.59559 200.57012,110.10204 146.9739,90.70734 92.031115,90.653338 Z"
         style="display:inline;opacity:0.05;fill:#ffffff;fill-opacity:1;fill-rule:nonzero;stroke:none;stroke-width:6.98096;stroke-linecap:butt;stroke-linejoin:round;stroke-miterlimit:4;stroke-dasharray:none;stroke-dashoffset:0;stroke-opacity:1;paint-order:normal;enable-background:new" />
    </g>
  </g>
  <g
     inkscape:groupmode="layer"
     id="layer3"
     inkscape:label="swirl"
     style="display:inline" />
</svg>
